<svg xmlns="http://www.w3.org/2000/svg" id="export" class="canvas" preserveAspectRatio="xMidYMid meet" style="" width="151" height="459"><rect id="background" fill="#fff" pointer-events="all" width="151" height="459"/><g id="origin" transform="translate(6.82598876953125, 6.82598876953125) scale(1)"><g id="clusters" class="clusters"/><g id="edge-paths" class="edge-paths"><defs><marker id="arrowhead" viewBox="0 0 10 10" refX="9" refY="5" markerUnits="strokeWidth" markerWidth="8" markerHeight="6" orient="auto" style="fill: rgb(0, 0, 0);"><path d="M 0 0 L 10 5 L 0 10 L 4 5 z" style="stroke-width: 1;"/></marker><marker id="arrowhead-select" viewBox="0 0 10 10" refX="9" refY="5" markerUnits="strokeWidth" markerWidth="8" markerHeight="6" orient="auto" style="fill: rgb(238, 0, 0);"><path d="M 0 0 L 10 5 L 0 10 L 4 5 z" style="stroke-width: 1;"/></marker><marker id="arrowhead-hover" viewBox="0 0 10 10" refX="9" refY="5" markerUnits="strokeWidth" markerWidth="8" markerHeight="6" orient="auto"><path d="M 0 0 L 10 5 L 0 10 L 4 5 z" style="stroke-width: 1;"/></marker></defs><path id="edge-input_2" class="edge-path" d="M67.769775390625,23L67.769775390625,24.666666666666668C67.769775390625,26.333333333333332,67.769775390625,29.666666666666668,67.769775390625,35C67.769775390625,40.333333333333336,67.769775390625,47.666666666666664,67.769775390625,55C67.769775390625,62.333333333333336,67.769775390625,69.66666666666667,67.769775390625,75C67.769775390625,80.33333333333333,67.769775390625,83.66666666666667,67.769775390625,85.33333333333333L67.769775390625,87" style="stroke: rgb(0, 0, 0); stroke-width: 1px; fill: none; marker-end: url(&quot;#arrowhead&quot;);"/><path class="edge-path-hit-test" d="M67.769775390625,23L67.769775390625,24.666666666666668C67.769775390625,26.333333333333332,67.769775390625,29.666666666666668,67.769775390625,35C67.769775390625,40.333333333333336,67.769775390625,47.666666666666664,67.769775390625,55C67.769775390625,62.333333333333336,67.769775390625,69.66666666666667,67.769775390625,75C67.769775390625,80.33333333333333,67.769775390625,83.66666666666667,67.769775390625,85.33333333333333L67.769775390625,87" style="pointer-events: stroke; stroke-width: 0.5em; fill: none; stroke: rgb(0, 0, 0); stroke-opacity: 0.001;"/><path id="edge-sequential" class="edge-path" d="M67.769775390625,110L67.769775390625,111.66666666666667C67.769775390625,113.33333333333333,67.769775390625,116.66666666666667,67.769775390625,120C67.769775390625,123.33333333333333,67.769775390625,126.66666666666667,67.769775390625,128.33333333333334L67.769775390625,130" style="stroke: rgb(0, 0, 0); stroke-width: 1px; fill: none; marker-end: url(&quot;#arrowhead&quot;);"/><path class="edge-path-hit-test" d="M67.769775390625,110L67.769775390625,111.66666666666667C67.769775390625,113.33333333333333,67.769775390625,116.66666666666667,67.769775390625,120C67.769775390625,123.33333333333333,67.769775390625,126.66666666666667,67.769775390625,128.33333333333334L67.769775390625,130" style="pointer-events: stroke; stroke-width: 0.5em; fill: none; stroke: rgb(0, 0, 0); stroke-opacity: 0.001;"/><path id="edge-tf.math.truediv" class="edge-path" d="M67.769775390625,153L67.769775390625,154.66666666666666C67.769775390625,156.33333333333334,67.769775390625,159.66666666666666,67.769775390625,163C67.769775390625,166.33333333333334,67.769775390625,169.66666666666666,67.769775390625,171.33333333333334L67.769775390625,173" style="stroke: rgb(0, 0, 0); stroke-width: 1px; fill: none; marker-end: url(&quot;#arrowhead&quot;);"/><path class="edge-path-hit-test" d="M67.769775390625,153L67.769775390625,154.66666666666666C67.769775390625,156.33333333333334,67.769775390625,159.66666666666666,67.769775390625,163C67.769775390625,166.33333333333334,67.769775390625,169.66666666666666,67.769775390625,171.33333333333334L67.769775390625,173" style="pointer-events: stroke; stroke-width: 0.5em; fill: none; stroke: rgb(0, 0, 0); stroke-opacity: 0.001;"/><path id="edge-tf.math.subtract" class="edge-path" d="M67.769775390625,196L67.769775390625,197.66666666666666C67.769775390625,199.33333333333334,67.769775390625,202.66666666666666,67.769775390625,206C67.769775390625,209.33333333333334,67.769775390625,212.66666666666666,67.769775390625,214.33333333333334L67.769775390625,216" style="stroke: rgb(0, 0, 0); stroke-width: 1px; fill: none; marker-end: url(&quot;#arrowhead&quot;);"/><path class="edge-path-hit-test" d="M67.769775390625,196L67.769775390625,197.66666666666666C67.769775390625,199.33333333333334,67.769775390625,202.66666666666666,67.769775390625,206C67.769775390625,209.33333333333334,67.769775390625,212.66666666666666,67.769775390625,214.33333333333334L67.769775390625,216" style="pointer-events: stroke; stroke-width: 0.5em; fill: none; stroke: rgb(0, 0, 0); stroke-opacity: 0.001;"/><path id="edge-mobilenetv2_1.00_160" class="edge-path" d="M67.769775390625,239L67.769775390625,240.66666666666666C67.769775390625,242.33333333333334,67.769775390625,245.66666666666666,67.769775390625,249C67.769775390625,252.33333333333334,67.769775390625,255.66666666666666,67.769775390625,257.3333333333333L67.769775390625,259" style="stroke: rgb(0, 0, 0); stroke-width: 1px; fill: none; marker-end: url(&quot;#arrowhead&quot;);"/><path class="edge-path-hit-test" d="M67.769775390625,239L67.769775390625,240.66666666666666C67.769775390625,242.33333333333334,67.769775390625,245.66666666666666,67.769775390625,249C67.769775390625,252.33333333333334,67.769775390625,255.66666666666666,67.769775390625,257.3333333333333L67.769775390625,259" style="pointer-events: stroke; stroke-width: 0.5em; fill: none; stroke: rgb(0, 0, 0); stroke-opacity: 0.001;"/><path id="edge-global_average_pooling2d" class="edge-path" d="M67.769775390625,282L67.769775390625,283.6666666666667C67.769775390625,285.3333333333333,67.769775390625,288.6666666666667,67.769775390625,292C67.769775390625,295.3333333333333,67.769775390625,298.6666666666667,67.769775390625,300.3333333333333L67.769775390625,302" style="stroke: rgb(0, 0, 0); stroke-width: 1px; fill: none; marker-end: url(&quot;#arrowhead&quot;);"/><path class="edge-path-hit-test" d="M67.769775390625,282L67.769775390625,283.6666666666667C67.769775390625,285.3333333333333,67.769775390625,288.6666666666667,67.769775390625,292C67.769775390625,295.3333333333333,67.769775390625,298.6666666666667,67.769775390625,300.3333333333333L67.769775390625,302" style="pointer-events: stroke; stroke-width: 0.5em; fill: none; stroke: rgb(0, 0, 0); stroke-opacity: 0.001;"/><path id="edge-dropout" class="edge-path" d="M67.769775390625,325L67.769775390625,326.6666666666667C67.769775390625,328.3333333333333,67.769775390625,331.6666666666667,67.769775390625,335C67.769775390625,338.3333333333333,67.769775390625,341.6666666666667,67.769775390625,343.3333333333333L67.769775390625,345" style="stroke: rgb(0, 0, 0); stroke-width: 1px; fill: none; marker-end: url(&quot;#arrowhead&quot;);"/><path class="edge-path-hit-test" d="M67.769775390625,325L67.769775390625,326.6666666666667C67.769775390625,328.3333333333333,67.769775390625,331.6666666666667,67.769775390625,335C67.769775390625,338.3333333333333,67.769775390625,341.6666666666667,67.769775390625,343.3333333333333L67.769775390625,345" style="pointer-events: stroke; stroke-width: 0.5em; fill: none; stroke: rgb(0, 0, 0); stroke-opacity: 0.001;"/><path id="edge-dense_1" class="edge-path" d="M67.769775390625,402L67.769775390625,403.6666666666667C67.769775390625,405.3333333333333,67.769775390625,408.6666666666667,67.769775390625,412C67.769775390625,415.3333333333333,67.769775390625,418.6666666666667,67.769775390625,420.3333333333333L67.769775390625,422" style="stroke: rgb(0, 0, 0); stroke-width: 1px; fill: none; marker-end: url(&quot;#arrowhead&quot;);"/><path class="edge-path-hit-test" d="M67.769775390625,402L67.769775390625,403.6666666666667C67.769775390625,405.3333333333333,67.769775390625,408.6666666666667,67.769775390625,412C67.769775390625,415.3333333333333,67.769775390625,418.6666666666667,67.769775390625,420.3333333333333L67.769775390625,422" style="pointer-events: stroke; stroke-width: 0.5em; fill: none; stroke: rgb(0, 0, 0); stroke-opacity: 0.001;"/></g><g id="edge-labels" class="edge-labels"><text class="edge-label" id="edge-label-edge-input_2" style="opacity: 1; font-family: -apple-system, BlinkMacSystemFont, &quot;Segoe WPC&quot;, &quot;Segoe UI&quot;, Ubuntu, &quot;Droid Sans&quot;, sans-serif, &quot;PingFang SC&quot;; font-size: 10px;" transform="translate(72.769775390625,48)"><tspan xml:space="preserve" dy="1em" x="1">?×160×160×3</tspan></text></g><g id="nodes" class="nodes"><g id="input-name-input_2" class="node graph-input" style="opacity: 1;" transform="translate(42.832763671875,0)"><g class="node-item graph-item-input" transform="translate(0,0)"><path d="M5,0h39.8740234375a5,5 0 0 1 5,5v13a5,5 0 0 1 -5,5h-39.8740234375a5,5 0 0 1 -5,-5v-13a5,5 0 0 1 5,-5z" style="stroke: rgb(0, 0, 0); fill: rgb(238, 238, 238); stroke-width: 0;"/><text x="6" y="16" style="font-family: -apple-system, BlinkMacSystemFont, &quot;Segoe WPC&quot;, &quot;Segoe UI&quot;, Ubuntu, &quot;Droid Sans&quot;, sans-serif, &quot;PingFang SC&quot;; font-size: 11px; text-rendering: geometricprecision;">input_2</text><title>float32[?,160,160,3]</title></g><path class="node border" d="M5,0h39.8740234375a5,5 0 0 1 5,5v13a5,5 0 0 1 -5,5h-39.8740234375a5,5 0 0 1 -5,-5v-13a5,5 0 0 1 5,-5z" style="stroke: rgb(51, 51, 51); fill: none; stroke-width: 1px;"/></g><g id="node-name-sequential" class="node graph-node" style="opacity: 1;" transform="translate(25.886962890625,87)"><g class="node-item node-item-type" transform="translate(0,0)"><path d="M5,0h58.765625a0,0 0 0 1 0,0v23a0,0 0 0 1 0,0h-58.765625a5,5 0 0 1 -5,-5v-13a5,5 0 0 1 5,-5z" style="stroke: rgb(0, 0, 0); fill: rgb(0, 0, 0); stroke-width: 0;"/><text x="6" y="16" style="font-family: -apple-system, BlinkMacSystemFont, &quot;Segoe WPC&quot;, &quot;Segoe UI&quot;, Ubuntu, &quot;Droid Sans&quot;, sans-serif, &quot;PingFang SC&quot;; font-size: 11px; text-rendering: geometricprecision; fill: rgb(255, 255, 255);">sequential</text><title>sequential</title></g><g class="node-item node-item-type" transform="translate(63.765625,0)"><path d="M0,0h15a5,5 0 0 1 5,5v13a5,5 0 0 1 -5,5h-15a0,0 0 0 1 0,0v-23a0,0 0 0 1 0,0z" style="stroke: rgb(0, 0, 0); fill: rgb(0, 0, 0); stroke-width: 0;"/><text x="6" y="16" style="font-family: -apple-system, BlinkMacSystemFont, &quot;Segoe WPC&quot;, &quot;Segoe UI&quot;, Ubuntu, &quot;Droid Sans&quot;, sans-serif, &quot;PingFang SC&quot;; font-size: 11px; text-rendering: geometricprecision; fill: rgb(255, 255, 255);">ƒ</text><title>Show Function Definition</title></g><path class="node border" d="M5,0h73.765625a5,5 0 0 1 5,5v13a5,5 0 0 1 -5,5h-73.765625a5,5 0 0 1 -5,-5v-13a5,5 0 0 1 5,-5z" style="stroke: rgb(51, 51, 51); fill: none; stroke-width: 1px;"/><line class="node" x1="63.765625" x2="63.765625" y1="0" y2="23" style="stroke: rgb(51, 51, 51); fill: none; stroke-width: 1px;"/></g><g id="node-name-tf.math.truediv" class="node graph-node" style="opacity: 1;" transform="translate(42.934326171875,130)"><g class="node-item node-item-type" transform="translate(0,0)"><path d="M5,0h39.6708984375a5,5 0 0 1 5,5v13a5,5 0 0 1 -5,5h-39.6708984375a5,5 0 0 1 -5,-5v-13a5,5 0 0 1 5,-5z" style="stroke: rgb(0, 0, 0); fill: rgb(0, 0, 0); stroke-width: 0;"/><text x="6" y="16" style="font-family: -apple-system, BlinkMacSystemFont, &quot;Segoe WPC&quot;, &quot;Segoe UI&quot;, Ubuntu, &quot;Droid Sans&quot;, sans-serif, &quot;PingFang SC&quot;; font-size: 11px; text-rendering: geometricprecision; fill: rgb(255, 255, 255);">truediv</text><title>tf.math.truediv</title></g><path class="node border" d="M5,0h39.6708984375a5,5 0 0 1 5,5v13a5,5 0 0 1 -5,5h-39.6708984375a5,5 0 0 1 -5,-5v-13a5,5 0 0 1 5,-5z" style="stroke: rgb(51, 51, 51); fill: none; stroke-width: 1px;"/></g><g id="node-name-tf.math.subtract" class="node graph-node" style="opacity: 1;" transform="translate(40.975341796875,173)"><g class="node-item node-item-type" transform="translate(0,0)"><path d="M5,0h43.5888671875a5,5 0 0 1 5,5v13a5,5 0 0 1 -5,5h-43.5888671875a5,5 0 0 1 -5,-5v-13a5,5 0 0 1 5,-5z" style="stroke: rgb(0, 0, 0); fill: rgb(0, 0, 0); stroke-width: 0;"/><text x="6" y="16" style="font-family: -apple-system, BlinkMacSystemFont, &quot;Segoe WPC&quot;, &quot;Segoe UI&quot;, Ubuntu, &quot;Droid Sans&quot;, sans-serif, &quot;PingFang SC&quot;; font-size: 11px; text-rendering: geometricprecision; fill: rgb(255, 255, 255);">subtract</text><title>tf.math.subtract</title></g><path class="node border" d="M5,0h43.5888671875a5,5 0 0 1 5,5v13a5,5 0 0 1 -5,5h-43.5888671875a5,5 0 0 1 -5,-5v-13a5,5 0 0 1 5,-5z" style="stroke: rgb(51, 51, 51); fill: none; stroke-width: 1px;"/></g><g id="node-name-mobilenetv2_1.00_160" class="node graph-node" style="opacity: 1;" transform="translate(33.627685546875,216)"><g class="node-item node-item-type" transform="translate(0,0)"><path d="M5,0h43.2841796875a0,0 0 0 1 0,0v23a0,0 0 0 1 0,0h-43.2841796875a5,5 0 0 1 -5,-5v-13a5,5 0 0 1 5,-5z" style="stroke: rgb(0, 0, 0); fill: rgb(0, 0, 0); stroke-width: 0;"/><text x="6" y="16" style="font-family: -apple-system, BlinkMacSystemFont, &quot;Segoe WPC&quot;, &quot;Segoe UI&quot;, Ubuntu, &quot;Droid Sans&quot;, sans-serif, &quot;PingFang SC&quot;; font-size: 11px; text-rendering: geometricprecision; fill: rgb(255, 255, 255);">00_160</text><title>mobilenetv2_1.00_160</title></g><g class="node-item node-item-type" transform="translate(48.2841796875,0)"><path d="M0,0h15a5,5 0 0 1 5,5v13a5,5 0 0 1 -5,5h-15a0,0 0 0 1 0,0v-23a0,0 0 0 1 0,0z" style="stroke: rgb(0, 0, 0); fill: rgb(0, 0, 0); stroke-width: 0;"/><text x="6" y="16" style="font-family: -apple-system, BlinkMacSystemFont, &quot;Segoe WPC&quot;, &quot;Segoe UI&quot;, Ubuntu, &quot;Droid Sans&quot;, sans-serif, &quot;PingFang SC&quot;; font-size: 11px; text-rendering: geometricprecision; fill: rgb(255, 255, 255);">ƒ</text><title>Show Function Definition</title></g><path class="node border" d="M5,0h58.2841796875a5,5 0 0 1 5,5v13a5,5 0 0 1 -5,5h-58.2841796875a5,5 0 0 1 -5,-5v-13a5,5 0 0 1 5,-5z" style="stroke: rgb(51, 51, 51); fill: none; stroke-width: 1px;"/><line class="node" x1="48.2841796875" x2="48.2841796875" y1="0" y2="23" style="stroke: rgb(51, 51, 51); fill: none; stroke-width: 1px;"/></g><g id="node-name-global_average_pooling2d" class="node graph-node" style="opacity: 1;" transform="translate(0,259)"><g class="node-item node-item-type node-item-type-pool" transform="translate(0,0)"><path d="M5,0h125.53955078125a5,5 0 0 1 5,5v13a5,5 0 0 1 -5,5h-125.53955078125a5,5 0 0 1 -5,-5v-13a5,5 0 0 1 5,-5z" style="stroke: rgb(0, 0, 0); fill: rgb(51, 85, 51); stroke-width: 0;"/><text x="6" y="16" style="font-family: -apple-system, BlinkMacSystemFont, &quot;Segoe WPC&quot;, &quot;Segoe UI&quot;, Ubuntu, &quot;Droid Sans&quot;, sans-serif, &quot;PingFang SC&quot;; font-size: 11px; text-rendering: geometricprecision; fill: rgb(255, 255, 255);">GlobalAveragePooling2D</text><title>global_average_pooling2d</title></g><path class="node border" d="M5,0h125.53955078125a5,5 0 0 1 5,5v13a5,5 0 0 1 -5,5h-125.53955078125a5,5 0 0 1 -5,-5v-13a5,5 0 0 1 5,-5z" style="stroke: rgb(51, 51, 51); fill: none; stroke-width: 1px;"/></g><g id="node-name-dropout" class="node graph-node" style="opacity: 1;" transform="translate(40.2099609375,302)"><g class="node-item node-item-type node-item-type-dropout" transform="translate(0,0)"><path d="M5,0h45.11962890625a5,5 0 0 1 5,5v13a5,5 0 0 1 -5,5h-45.11962890625a5,5 0 0 1 -5,-5v-13a5,5 0 0 1 5,-5z" style="stroke: rgb(0, 0, 0); fill: rgb(69, 71, 112); stroke-width: 0;"/><text x="6" y="16" style="font-family: -apple-system, BlinkMacSystemFont, &quot;Segoe WPC&quot;, &quot;Segoe UI&quot;, Ubuntu, &quot;Droid Sans&quot;, sans-serif, &quot;PingFang SC&quot;; font-size: 11px; text-rendering: geometricprecision; fill: rgb(255, 255, 255);">Dropout</text><title>dropout</title></g><path class="node border" d="M5,0h45.11962890625a5,5 0 0 1 5,5v13a5,5 0 0 1 -5,5h-45.11962890625a5,5 0 0 1 -5,-5v-13a5,5 0 0 1 5,-5z" style="stroke: rgb(51, 51, 51); fill: none; stroke-width: 1px;"/></g><g id="node-name-dense_1" class="node graph-node" style="opacity: 1;" transform="translate(24.426025390625,345)"><g class="node-item node-item-type node-item-type-layer" transform="translate(0,0)"><path d="M5,0h76.6875a5,5 0 0 1 5,5v18a0,0 0 0 1 0,0h-86.6875a0,0 0 0 1 0,0v-18a5,5 0 0 1 5,-5z" style="stroke: rgb(0, 0, 0); fill: rgb(51, 85, 136); stroke-width: 0;"/><text x="6" y="16" style="font-family: -apple-system, BlinkMacSystemFont, &quot;Segoe WPC&quot;, &quot;Segoe UI&quot;, Ubuntu, &quot;Droid Sans&quot;, sans-serif, &quot;PingFang SC&quot;; font-size: 11px; text-rendering: geometricprecision; fill: rgb(255, 255, 255);">Dense</text><title>dense_1</title></g><g class="node-attribute" transform="translate(0,23)"><path d="M0,0h86.6875a0,0 0 0 1 0,0v29a5,5 0 0 1 -5,5h-76.6875a5,5 0 0 1 -5,-5v-29a0,0 0 0 1 0,0z" style="stroke: rgb(0, 0, 0); fill: rgb(255, 255, 255); stroke-width: 0;"/><text id="initializer-dense_1/kernel:0" xml:space="preserve" x="6" y="14" style="font-family: -apple-system, BlinkMacSystemFont, &quot;Segoe WPC&quot;, &quot;Segoe UI&quot;, Ubuntu, &quot;Droid Sans&quot;, sans-serif, &quot;PingFang SC&quot;; font-size: 9px; font-weight: normal; text-rendering: geometricprecision;"><title>float32[1280,7]</title><tspan style="font-weight: bold;">kernel</tspan><tspan>〈1280×7〉</tspan></text><text id="initializer-dense_1/bias:0" xml:space="preserve" x="6" y="28" style="font-family: -apple-system, BlinkMacSystemFont, &quot;Segoe WPC&quot;, &quot;Segoe UI&quot;, Ubuntu, &quot;Droid Sans&quot;, sans-serif, &quot;PingFang SC&quot;; font-size: 9px; font-weight: normal; text-rendering: geometricprecision;"><title>float32[7]</title><tspan style="font-weight: bold;">bias</tspan><tspan>〈7〉</tspan></text><line class="node" x1="0" x2="86.6875" y1="0" y2="0" style="stroke: rgb(51, 51, 51); fill: none; stroke-width: 1px;"/></g><path class="node border" d="M5,0h76.6875a5,5 0 0 1 5,5v47a5,5 0 0 1 -5,5h-76.6875a5,5 0 0 1 -5,-5v-47a5,5 0 0 1 5,-5z" style="stroke: rgb(51, 51, 51); fill: none; stroke-width: 1px;"/></g><g class="node" style="opacity: 1;" transform="translate(41.082275390625,422)"><g class="node-item graph-item-output" transform="translate(0,0)"><path d="M5,0h43.375a5,5 0 0 1 5,5v13a5,5 0 0 1 -5,5h-43.375a5,5 0 0 1 -5,-5v-13a5,5 0 0 1 5,-5z" style="stroke: rgb(0, 0, 0); fill: rgb(238, 238, 238); stroke-width: 0;"/><text x="6" y="16" style="font-family: -apple-system, BlinkMacSystemFont, &quot;Segoe WPC&quot;, &quot;Segoe UI&quot;, Ubuntu, &quot;Droid Sans&quot;, sans-serif, &quot;PingFang SC&quot;; font-size: 11px; text-rendering: geometricprecision;">dense_1</text></g><path class="node border" d="M5,0h43.375a5,5 0 0 1 5,5v13a5,5 0 0 1 -5,5h-43.375a5,5 0 0 1 -5,-5v-13a5,5 0 0 1 5,-5z" style="stroke: rgb(51, 51, 51); fill: none; stroke-width: 1px;"/></g></g></g></svg>